<svg viewBox="0 0 97 94" fill="none" preserveAspectRatio="xMidYMid meet" xmlns="http://www.w3.org/2000/svg">
<path d="M32.7034 91.9861C41.6294 94.81 52.7634 94.763 63.0048 90.8566C73.2462 86.9502 82.2191 80.1729 90.0646 72.4543C92.2256 70.2894 93.1652 67.5596 94.2457 64.6887C95.1383 62.3825 96.5477 55.8876 96.5947 53.3932C96.9235 40.7328 95.1853 32.12 89.0781 21.0598C82.9708 9.99959 71.8838 1.19851 59.3404 0.116026C46.6561 -0.966459 34.4886 5.66965 24.8109 14.0001C19.9251 18.2359 15.4621 22.8953 11.4689 27.9783C3.38856 38.2384 -2.76567 51.6988 1.27452 64.1239C3.62346 71.2307 8.97905 76.8784 14.7575 81.6319C20.113 85.9619 28.7102 90.7154 32.7034 91.9861Z" fill="#1E9BD4"/>
</svg>
