<svg viewBox="0 0 313 304" fill="none" preserveAspectRatio="xMidYMid meet" xmlns="http://www.w3.org/2000/svg">
<path d="M105.792 297.565C134.666 306.699 170.683 306.547 203.813 293.911C236.943 281.274 265.969 259.35 291.349 234.381C298.339 227.378 301.379 218.548 304.874 209.26C307.762 201.8 312.321 180.79 312.473 172.721C313.536 131.766 307.914 103.904 288.157 68.126C268.401 32.3475 232.536 3.87705 191.959 0.375332C150.927 -3.12639 111.567 18.3407 80.2605 45.2887C64.4555 58.991 50.0182 74.0636 37.1007 90.5065C10.9616 123.697 -8.94662 167.24 4.12291 207.433C11.7215 230.423 29.0462 248.693 47.7387 264.07C65.0634 278.077 92.8742 293.454 105.792 297.565Z" fill="#4E4E4E"/>
<path d="M196.67 147.447C204.421 133.136 222.961 120.956 239.83 126.589C248.341 129.482 250.164 138.312 250.468 146.382C250.924 154.907 252.14 166.478 246.213 173.33C239.982 180.637 229.648 186.423 220.226 188.25C215.059 189.163 211.108 188.098 205.485 185.205C191.655 178.202 190.44 160.388 196.67 147.447C202.901 134.202 183.297 122.631 176.914 135.876C168.404 153.842 167.036 178.658 180.561 194.492C192.719 208.803 213.539 214.741 231.32 208.956C242.718 205.15 254.268 198.451 262.474 189.468C271.44 179.724 273.112 168.001 273.416 155.06C273.872 132.222 267.033 107.71 241.35 103.447C215.667 99.1845 189.376 112.887 177.066 135.724C169.923 148.97 189.68 160.388 196.67 147.447Z" fill="white"/>
<path d="M91.6589 147.904C103.209 140.444 114.759 133.136 126.308 125.676C120.533 122.326 114.91 119.129 109.136 115.78C105.792 145.164 102.601 174.395 99.2575 203.779C98.4976 209.869 105.032 215.198 110.655 215.198C117.342 215.198 121.293 209.869 122.053 203.779C125.397 174.395 128.588 145.164 131.931 115.78C132.843 107.101 121.597 101.62 114.759 105.883C103.209 113.344 91.6589 120.652 80.1091 128.112C67.7994 136.029 79.1972 155.821 91.6589 147.904Z" fill="white"/>
</svg>
